<?xml version="1.0" encoding="UTF-8"?>
<svg id="Capa_2" xmlns="http://www.w3.org/2000/svg" version="1.1" viewBox="0 0 41.7 9.3">
  <!-- Generator: Adobe Illustrator 29.6.1, SVG Export Plug-In . SVG Version: 2.1.1 Build 9)  -->
  <defs>
    <style>
      .st0 {
        fill: #fff;
      }
    </style>
  </defs>
  <g id="Capa_1-2">
    <g>
      <path class="st0" d="M1.7,4L.1.3h1.1l1.3,3.2h-.7L3.3.3h1l-1.6,3.7s-1,0-1,0Z"/>
      <path class="st0" d="M4.5,4V.3h1v3.7s-1,0-1,0Z"/>
      <path class="st0" d="M6.3,4V.3h1.7c.3,0,.6,0,.9.2.2.1.4.3.6.5.1.2.2.5.2.7s0,.5-.2.7c-.1.2-.3.4-.6.5-.2.1-.5.2-.9.2h-1.1l.5-.4v1.4h-1,0ZM7.3,2.7l-.5-.5h1c.2,0,.4,0,.5-.1.1,0,.2-.2.2-.4s0-.3-.2-.4c-.1,0-.3-.1-.5-.1h-1l.5-.5s0,2,0,2ZM8.6,4l-.9-1.3h1.1l.9,1.3h-1.1Z"/>
      <path class="st0" d="M12,4.1c-.3,0-.6,0-.8-.1s-.5-.2-.6-.4c-.2-.2-.3-.4-.4-.6s-.1-.5-.1-.8,0-.5.1-.8c.1-.2.2-.4.4-.6.2-.2.4-.3.6-.4.2,0,.5-.1.8-.1s.6,0,.8.1c.2,0,.5.2.6.4s.3.4.4.6.2.5.2.8,0,.5-.2.8-.2.4-.4.6-.4.3-.6.4c-.2,0-.5.1-.8.1ZM12,3.2c.1,0,.3,0,.4,0,.1,0,.2-.1.3-.2,0,0,.2-.2.2-.3s0-.3,0-.4,0-.3,0-.4-.1-.2-.2-.3c0,0-.2-.2-.3-.2-.1,0-.2,0-.4,0s-.3,0-.4,0c-.1,0-.2.1-.3.2s-.2.2-.2.3,0,.3,0,.4,0,.3,0,.4c0,.1.1.2.2.3,0,0,.2.2.3.2.1,0,.2,0,.4,0Z"/>
      <path class="st0" d="M1.6,8.9H.6v-3.7h1v3.7ZM3.1,7.5h-1.6v-.9h1.6v.9ZM3,5.2h1v3.7h-1v-3.7Z"/>
      <path class="st0" d="M6.7,9c-.3,0-.6,0-.8-.1s-.5-.2-.6-.4c-.2-.2-.3-.4-.4-.6s-.1-.5-.1-.8,0-.5.1-.8c.1-.2.2-.4.4-.6.2-.2.4-.3.6-.4.2,0,.5-.1.8-.1s.6,0,.8.1.5.2.6.4.3.4.4.6.2.5.2.8,0,.5-.2.8-.2.4-.4.6-.4.3-.6.4c-.2,0-.5.1-.8.1ZM6.7,8.1c.1,0,.3,0,.4,0,.1,0,.2-.1.3-.2,0,0,.2-.2.2-.3s0-.3,0-.4,0-.3,0-.4-.1-.2-.2-.3c0,0-.2-.2-.3-.2-.1,0-.2,0-.4,0s-.3,0-.4,0c-.1,0-.2.1-.3.2s-.2.2-.2.3,0,.3,0,.4,0,.3,0,.4.1.2.2.3c0,0,.2.2.3.2.1,0,.2,0,.4,0Z"/>
      <path class="st0" d="M9.3,8.9v-3.7h1v2.9h1.8v.8h-2.8Z"/>
      <path class="st0" d="M12.5,8.9v-3.7h1.7c.4,0,.8,0,1.1.2s.5.4.7.6c.2.3.3.6.3,1s0,.7-.3,1-.4.5-.7.6c-.3.1-.7.2-1.1.2h-1.7ZM13.5,8.1h.7c.2,0,.4,0,.5-.1s.3-.2.4-.4c0-.1.1-.3.1-.5s0-.4-.1-.6c0-.1-.2-.3-.4-.3-.2,0-.3-.1-.5-.1h-.7v2Z"/>
      <path class="st0" d="M16.8,8.9v-3.7h1v3.7s-1,0-1,0Z"/>
      <path class="st0" d="M18.6,8.9v-3.7h.9l2,2.4h-.4v-2.4h1v3.7h-.9l-2-2.4h.4v2.4s-1,0-1,0Z"/>
      <path class="st0" d="M24.6,9c-.3,0-.6,0-.8-.1s-.5-.2-.6-.4c-.2-.2-.3-.4-.4-.6s-.2-.5-.2-.8,0-.5.2-.8.2-.4.4-.6c.2-.2.4-.3.7-.4.2,0,.5-.1.8-.1s.7,0,.9.2c.3.1.5.3.7.5l-.7.6c-.1-.1-.3-.2-.4-.3-.2,0-.3-.1-.5-.1s-.3,0-.4,0c-.1,0-.2.1-.3.2s-.2.2-.2.3,0,.3,0,.4,0,.3,0,.4c0,.1.1.2.2.3s.2.2.3.2.3,0,.4,0,.3,0,.5,0,.3-.1.5-.3l.6.7c-.2.1-.5.3-.7.4s-.5.1-.8.1h0ZM25.3,8.4v-1.4h.9v1.5h-.9c0-.1,0-.1,0-.1Z"/>
      <path class="st0" d="M28.1,9c-.3,0-.6,0-.9-.1s-.5-.2-.7-.3l.3-.8c.2.1.3.2.6.3.2,0,.4.1.6.1s.3,0,.3,0,.2,0,.2-.1c0,0,0-.1,0-.2s0-.1-.1-.2c0,0-.2,0-.3-.1s-.3,0-.4,0-.3,0-.5-.1-.3-.1-.4-.2-.2-.2-.3-.3-.1-.3-.1-.5,0-.4.2-.6.3-.3.5-.4c.2-.1.5-.2.9-.2s.5,0,.7,0,.4.1.6.2l-.3.8c-.2,0-.3-.2-.5-.2-.2,0-.3,0-.5,0s-.3,0-.3,0-.2,0-.2.1c0,0,0,.1,0,.2s0,.1.1.2.2,0,.3.1c.1,0,.3,0,.4,0s.3,0,.5.1.3.1.4.2.2.2.3.3.1.3.1.5,0,.4-.2.6-.3.3-.5.4-.5.2-.9.2h0Z"/>
      <path class="st0" d="M31.8,8.9v-3.7h1v2.9h1.8v.8h-2.8Z"/>
      <path class="st0" d="M35,8.9v-3.7h1v2.9h1.8v.8h-2.8Z"/>
      <path class="st0" d="M40,9c-.3,0-.6,0-.8-.1s-.5-.2-.6-.4c-.2-.2-.3-.4-.4-.6s-.2-.5-.2-.8,0-.5.2-.8.2-.4.4-.6c.2-.2.4-.3.6-.4.2,0,.5-.1.8-.1s.6,0,.9.2.5.3.7.5l-.7.6c-.1-.1-.2-.2-.4-.3s-.3-.1-.5-.1-.3,0-.4,0c-.1,0-.2.1-.3.2s-.2.2-.2.3,0,.3,0,.4,0,.3,0,.4c0,.1.1.2.2.3s.2.2.3.2c.1,0,.3,0,.4,0s.3,0,.5-.1.3-.2.4-.3l.7.6c-.2.2-.4.4-.7.5-.3.1-.6.2-.9.2h0Z"/>
    </g>
  </g>
</svg>