<?xml version="1.0" encoding="UTF-8"?>
<svg id="Capa_2" data-name="Capa 2" xmlns="http://www.w3.org/2000/svg" viewBox="0 0 54.16 15">
  <g id="Capa_1-2" data-name="Capa 1">
    <g>
      <g>
        <path d="M2.82,13.32c1.33.97,2.65,1.57,2.7,1.59l.19.08.19-.08c.22-.1,5.51-2.52,5.51-5.67V1.9L5.71,0,0,1.9v7.35c0,1.69,1.53,3.15,2.82,4.08ZM.91,2.56L5.71.96l4.79,1.6v6.69c0,2.03-3.29,4.03-4.79,4.75-.4-.19-1.38-.7-2.36-1.41-1.11-.8-2.44-2.03-2.44-3.34V2.56h0Z"/>
        <path d="M8.23,3.46h-1.73c-.05-.16-.16-.29-.3-.38v-.26c0-.2-.14-.37-.34-.39-.22-.02-.41.15-.41.37v.27c-.14.09-.25.22-.3.38h-1.73l-1.12,1.94v.09c0,.69.56,1.24,1.24,1.24s1.24-.56,1.24-1.24v-.09l-.86-1.5h1.22c.05.16.16.29.3.38v2.26c0,.69-.56,1.26-1.26,1.26h-.47c-.09,0-.16.07-.16.16v.29c0,.09.07.16.16.16h4.2c.09,0,.16-.07.16-.16v-.29c0-.09-.07-.16-.16-.16h-.47c-.69,0-1.26-.56-1.26-1.26v-2.26c.14-.09.25-.22.3-.38h1.22l-.86,1.5v.09c0,.69.56,1.24,1.24,1.24s1.24-.56,1.24-1.24v-.09l-1.12-1.94h0ZM4.32,5.45h-1.54l.77-1.33.77,1.33h0ZM8.1,4.12l.77,1.33h-1.54l.77-1.33h0Z"/>
        <g>
          <rect x="6.72" y="9.06" width="1.21" height="2.92" rx=".19" ry=".19"/>
          <rect x="5.17" y="9.73" width="1.21" height="2.25" rx=".12" ry=".12"/>
          <rect x="3.61" y="10.55" width="1.21" height="1.43" rx=".18" ry=".18"/>
        </g>
      </g>
      <g>
        <path d="M14.3,6.94l-1.57-3.68h1.12l1.32,3.18h-.66l1.36-3.18h1.03l-1.58,3.68h-1.02Z"/>
        <path d="M17.12,6.94v-3.68h1.04v3.68h-1.04Z"/>
        <path d="M18.9,6.94v-3.68h1.68c.34,0,.63.05.87.16.24.11.43.27.56.47.13.21.2.45.2.73s-.07.52-.2.72c-.13.2-.32.36-.56.46-.24.11-.53.16-.87.16h-1.1l.46-.44v1.41h-1.04ZM19.94,5.63l-.46-.48h1.04c.22,0,.38-.05.49-.14.11-.09.16-.23.16-.39s-.05-.3-.16-.4c-.11-.09-.27-.14-.49-.14h-1.04l.46-.48v2.03ZM21.18,6.94l-.91-1.34h1.11l.92,1.34h-1.11Z"/>
        <path d="M24.64,7.01c-.29,0-.57-.05-.81-.14s-.46-.23-.65-.4c-.18-.17-.33-.38-.43-.61-.1-.23-.15-.48-.15-.76s.05-.53.15-.76c.1-.23.24-.43.43-.61.18-.17.4-.31.65-.4.25-.09.52-.14.81-.14s.57.05.82.14c.25.09.46.23.64.4.18.17.33.38.43.61.1.23.16.48.16.76s-.05.53-.16.76-.25.44-.43.61c-.18.17-.4.3-.64.4-.25.09-.52.14-.82.14ZM24.64,6.15c.14,0,.27-.02.39-.07.12-.05.23-.12.31-.21.09-.09.16-.2.21-.33.05-.13.08-.27.08-.43s-.03-.31-.08-.43-.12-.24-.21-.33c-.09-.09-.19-.16-.31-.21-.12-.05-.25-.07-.39-.07s-.27.02-.39.07c-.12.05-.23.12-.32.21-.09.09-.16.2-.21.33s-.08.27-.08.43.03.3.08.43c.05.13.12.24.21.33.09.09.19.16.32.21.12.05.25.07.39.07Z"/>
        <path d="M14.22,11.83h-1.04v-3.68h1.04v3.68ZM15.71,10.39h-1.57v-.86h1.57v.86ZM15.63,8.15h1.04v3.68h-1.04v-3.68Z"/>
        <path d="M19.26,11.9c-.29,0-.57-.05-.81-.14s-.46-.23-.65-.4c-.18-.17-.33-.38-.43-.61-.1-.23-.15-.48-.15-.76s.05-.53.15-.76c.1-.23.24-.43.43-.61.18-.17.4-.31.65-.4.25-.09.52-.14.81-.14s.57.05.82.14c.25.09.46.23.64.4.18.17.33.38.43.61.1.23.16.48.16.76s-.05.53-.16.76-.25.44-.43.61c-.18.17-.4.3-.64.4-.25.09-.52.14-.82.14ZM19.26,11.04c.14,0,.27-.02.39-.07.12-.05.23-.12.31-.21.09-.09.16-.2.21-.33.05-.13.08-.27.08-.43s-.03-.31-.08-.43-.12-.24-.21-.33c-.09-.09-.19-.16-.31-.21-.12-.05-.25-.07-.39-.07s-.27.02-.39.07c-.12.05-.23.12-.32.21-.09.09-.16.2-.21.33s-.08.27-.08.43.03.3.08.43c.05.13.12.24.21.33.09.09.19.16.32.21.12.05.25.07.39.07Z"/>
        <path d="M21.86,11.83v-3.68h1.04v2.85h1.75v.82h-2.79Z"/>
        <path d="M25.06,11.83v-3.68h1.74c.41,0,.76.08,1.07.23.31.15.55.36.72.64.17.27.26.6.26.98s-.09.7-.26.97c-.17.27-.41.49-.72.64-.31.15-.67.23-1.07.23h-1.74ZM26.1,11h.66c.21,0,.39-.04.55-.12.16-.08.28-.19.37-.35.09-.15.13-.33.13-.54s-.04-.4-.13-.55c-.09-.15-.21-.27-.37-.34-.16-.08-.34-.12-.55-.12h-.66v2.02Z"/>
        <path d="M29.4,11.83v-3.68h1.04v3.68h-1.04Z"/>
        <path d="M31.18,11.83v-3.68h.86l2.03,2.45h-.4v-2.45h1.02v3.68h-.86l-2.03-2.45h.4v2.45h-1.02Z"/>
        <path d="M37.25,11.9c-.29,0-.56-.05-.81-.14-.25-.09-.46-.22-.64-.4-.18-.17-.32-.37-.42-.61s-.15-.49-.15-.77.05-.54.15-.77.24-.44.43-.61c.18-.17.4-.3.65-.4.25-.09.52-.14.82-.14.35,0,.66.06.93.17.27.12.5.28.68.5l-.66.6c-.13-.14-.26-.24-.41-.31-.15-.07-.31-.1-.49-.1-.16,0-.3.02-.43.07-.13.05-.24.12-.33.21s-.16.2-.21.33-.08.27-.08.43.03.3.08.43c.05.13.12.24.21.33s.2.16.33.22.27.08.42.08.3-.03.45-.08.3-.14.45-.26l.58.73c-.21.15-.45.27-.73.35-.28.08-.55.12-.81.12ZM37.88,11.3v-1.39h.92v1.52l-.92-.14Z"/>
        <path d="M40.75,11.9c-.3,0-.59-.04-.87-.11s-.51-.17-.68-.29l.34-.77c.16.1.35.19.57.26.22.07.43.1.64.1.14,0,.26-.01.35-.04.09-.03.15-.06.19-.1.04-.04.06-.1.06-.16,0-.08-.04-.15-.12-.2-.08-.05-.18-.09-.3-.12-.12-.03-.26-.06-.41-.09-.15-.03-.3-.07-.45-.12-.15-.05-.29-.11-.41-.19-.12-.08-.22-.18-.3-.31s-.12-.29-.12-.49c0-.22.06-.42.18-.6s.3-.32.54-.43c.24-.11.54-.16.9-.16.24,0,.48.03.71.08.23.05.44.13.62.24l-.32.77c-.18-.09-.35-.17-.52-.21-.17-.05-.34-.07-.5-.07-.14,0-.26.02-.35.04s-.15.07-.19.12c-.04.05-.06.1-.06.17,0,.08.04.14.11.19s.17.09.3.12c.12.03.26.06.41.09s.3.07.45.12c.15.05.29.11.41.19.12.08.22.18.3.31s.11.29.11.48c0,.21-.06.41-.18.59-.12.18-.3.33-.54.43s-.54.16-.91.16Z"/>
        <path d="M44.39,11.83v-3.68h1.04v2.85h1.75v.82h-2.79Z"/>
        <path d="M47.59,11.83v-3.68h1.04v2.85h1.75v.82h-2.79Z"/>
        <path d="M52.57,11.9c-.29,0-.56-.05-.81-.14-.25-.09-.46-.22-.64-.4-.18-.17-.32-.37-.42-.61s-.15-.49-.15-.77.05-.54.15-.77.24-.44.42-.61c.18-.17.39-.3.64-.4.25-.09.52-.14.81-.14.34,0,.64.06.91.18.27.12.49.29.67.52l-.66.6c-.12-.14-.25-.25-.39-.32-.14-.07-.3-.11-.48-.11-.15,0-.29.02-.42.07-.13.05-.23.12-.32.21-.09.09-.16.2-.21.33-.05.13-.08.27-.08.43s.03.3.08.43c.05.13.12.24.21.33.09.09.2.16.32.21.13.05.26.07.42.07.17,0,.33-.04.48-.11s.27-.18.39-.32l.66.6c-.18.22-.4.39-.67.51-.27.12-.57.18-.91.18Z"/>
      </g>
    </g>
  </g>
</svg>