<?xml version="1.0" encoding="UTF-8"?>
<svg id="Capa_2" data-name="Capa 2" xmlns="http://www.w3.org/2000/svg" viewBox="0 0 81.93 87.13">
  <defs>
    <style>
      .cls-1 {
        fill: #80744d;
      }
    </style>
  </defs>
  <g id="Capa_1-2" data-name="Capa 1">
    <path class="cls-1" d="M.68,47.23h0L29.99,12.65h.01s.04-.06.07-.09c.02-.02.03-.03.04-.04.02-.02.04-.03.06-.05h.01s.03-.04.04-.05c.02-.02.05-.03.07-.05h.02s.02-.03.04-.03c.02-.01.04-.03.07-.04.02-.01.04-.02.06-.03.02-.01.05-.02.07-.03.03-.01.05-.02.07-.03.02,0,.05-.02.07-.02h.02s.03-.02.05-.02c.02,0,.03,0,.05-.01l.08-.02s.06,0,.09-.01h.05s.04,0,.06,0h.08s.06,0,.08,0c.03,0,.04,0,.06,0,.02,0,.04,0,.07.01.04,0,.06.01.08.02l.08.02s.04.01.06.02c.02,0,.04.01.06.02h.02s.04.02.06.03c.02,0,.04.02.06.03.03.01.05.03.08.04,0,0,.01,0,.02.01l21.07,12.5L70.74,2.99h-6.82c-.82,0-1.49-.67-1.49-1.49s.67-1.49,1.49-1.49h9.96c.82,0,1.49.67,1.49,1.49v9.96c0,.82-.67,1.49-1.49,1.49s-1.49-.67-1.49-1.49v-5.76l-17.93,22.02s-.08.09-.12.13c0,0-.01.01-.02.02h-.01s-.07.08-.11.1c0,0-.02.01-.03.02h-.01s-.07.06-.1.08l-.05.03s-.07.04-.11.05l-.06.02s-.08.03-.12.04l-.06.02s-.08.02-.12.02c-.02,0-.04,0-.06,0-.05,0-.11,0-.16,0h-.02c-.05,0-.11,0-.16,0-.01,0-.03,0-.05,0-.05,0-.11-.02-.17-.03h-.02c-.06-.02-.11-.04-.16-.06h-.03c-.06-.03-.11-.06-.16-.09l-21.1-12.52L2.95,49.16c-.28.33-.7.53-1.14.53-.35,0-.69-.13-.97-.35-.63-.53-.71-1.48-.17-2.11ZM15.23,56.23H1.49c-.82,0-1.49.67-1.49,1.49v27.91c0,.82.67,1.49,1.49,1.49h13.74c.82,0,1.49-.67,1.49-1.49v-27.91c0-.4-.15-.77-.44-1.06-.28-.28-.66-.44-1.06-.44ZM58.7,41.12h-13.74c-.82,0-1.49.67-1.49,1.49v43.02c0,.82.67,1.49,1.49,1.49h13.74c.82,0,1.49-.67,1.49-1.49v-43.02c0-.82-.67-1.49-1.49-1.49ZM80.43,17.17h-13.74c-.82,0-1.49.67-1.49,1.49v66.97c0,.82.67,1.49,1.49,1.49h13.74c.82,0,1.49-.67,1.49-1.49V18.66c0-.82-.67-1.49-1.49-1.49ZM36.97,29.53h-13.74c-.82,0-1.49.67-1.49,1.49v54.61c0,.82.67,1.49,1.49,1.49h13.74c.82,0,1.49-.67,1.49-1.49V31.02c0-.82-.67-1.49-1.49-1.49Z"/>
  </g>
</svg>