<?xml version="1.0" encoding="UTF-8"?>
<svg id="Capa_2" data-name="Capa 2" xmlns="http://www.w3.org/2000/svg" viewBox="0 0 68.75 66.66">
  <defs>
    <style>
      .cls-1 {
        fill: #80744d;
      }
    </style>
  </defs>
  <g id="Capa_1-2" data-name="Capa 1">
    <path class="cls-1" d="M67.71,31.25h-1.22l-8.64-19.01c1.23-.39,2.27-1.23,2.92-2.34.26-.5.08-1.11-.4-1.38-.48-.28-1.1-.13-1.4.34-.54.95-1.55,1.54-2.64,1.56-1.09.02-2.12-.52-2.71-1.45-1.02-1.7-2.73-2.86-4.69-3.18l-.39-.06h0c-2.45-.34-4.92-.52-7.4-.52h-3.49c.24-.49.36-1.02.36-1.56,0-2.01-1.63-3.64-3.64-3.64s-3.64,1.63-3.64,3.64c0,.54.12,1.07.36,1.56h-3.49c-2.48,0-4.95.18-7.4.52l-.39.06h0c-1.96.32-3.67,1.48-4.69,3.18-.59.92-1.61,1.47-2.71,1.45-1.09-.02-2.09-.61-2.64-1.56-.3-.47-.92-.62-1.4-.34-.48.28-.66.89-.4,1.38.65,1.11,1.69,1.95,2.92,2.34L2.26,31.25h-1.22c-.58,0-1.04.46-1.04,1.04,0,6.64,5.22,11.46,12.41,11.46s12.41-4.82,12.41-11.46c0-.27-.11-.54-.3-.73-.2-.2-.46-.3-.74-.3h-1.23L13.93,12.29c1.23-.35,2.29-1.13,2.97-2.21.69-1.18,1.87-2,3.22-2.23l.39-.06c2.35-.33,4.73-.5,7.11-.5h4.67l-1,51.04h-6.27c-3.45,0-6.25,2.8-6.25,6.25v1.04c0,.27.11.54.3.73.2.2.46.3.74.3h29.16c.28,0,.54-.11.74-.3.2-.2.3-.46.3-.73v-1.04c0-3.45-2.8-6.25-6.25-6.25h-6.27l-1-51.04h4.66c2.38,0,4.75.17,7.11.5l.39.06c1.35.23,2.53,1.05,3.22,2.23.68,1.07,1.74,1.86,2.97,2.21l-8.62,18.96h-1.23c-.58,0-1.04.46-1.04,1.04,0,6.64,5.22,11.46,12.41,11.46,7.19,0,12.41-4.82,12.41-11.46,0-.27-.11-.54-.3-.73-.2-.2-.46-.3-.74-.3h0ZM20.26,31.25H4.55l7.86-17.27,7.86,17.27ZM34.37,5.21c-.63,0-1.2-.38-1.45-.96-.24-.58-.11-1.25.34-1.7.45-.45,1.12-.58,1.7-.34.59.24.96.81.96,1.45,0,.86-.7,1.56-1.56,1.56h0ZM48.49,31.25l7.86-17.27,7.86,17.27h-15.71Z"/>
  </g>
</svg>