<?xml version="1.0" encoding="UTF-8"?>
<svg id="Capa_2" data-name="Capa 2" xmlns="http://www.w3.org/2000/svg" viewBox="0 0 96.88 96.88">
  <defs>
    <style>
      .cls-1 {
        fill: #80744d;
        fill-rule: evenodd;
      }
    </style>
  </defs>
  <g id="Capa_1-2" data-name="Capa 1">
    <path class="cls-1" d="M61.71,1.84c-.16-.16-.36-.28-.59-.36-.29-.09-.59-.1-.87-.03-3.78-.95-7.74-1.45-11.81-1.45C21.7,0,0,21.7,0,48.44s21.7,48.44,48.44,48.44,48.44-21.7,48.44-48.44c0-22.13-14.88-40.82-35.16-46.59h0ZM58.55,4.26c-3.25-.74-6.64-1.13-10.11-1.13-9.54,0-18.39,2.95-25.69,7.99l1.43,5.85c.59,2.37-.17,4.95-1.75,6.73-.02.02-.04.04-.06.07l-2.34,2.34c-.79.79-1.26,1.79-1.26,2.8v1.56c0,2.02-.82,3.83-2.21,5.05l-1.05,1.05c-.22.22-.36.44-.48.61l.06-.08-4.05,6.24c-.79,1.25-.91,2.72-.23,4.08l.66,1.32c.44.99,1.35,1.63,2.34,1.96,0,0,6.19,2.02,6.2,2.02.46.12.92.25,1.27.25h2.81c3.99,0,7.19,3.2,7.19,7.19v2.5c0,1.22-.22,2.23-.81,3.25l-1.23,2.45c-.56,1.12-.56,2.46,0,3.59l1.08,2s.04.09.06.12c.31.73.95,1.37,1.68,1.68.09.04.17.09.25.14,0,0,1.33.89,1.32.88,2.35,1.22,3.91,3.79,3.91,6.36v9.29c3.5.87,7.16,1.33,10.94,1.33,7.88,0,15.3-2.02,21.76-5.56l-2.24-2.24s-.04-.04-.06-.07c-1.51-1.7-2.43-3.78-2.43-6.04v-2.5c0-3.04-2.43-5.47-5.47-5.47-1.91,0-3.63-.57-5.16-1.72l-7.81-5.94c-2.09-1.53-3.44-4.2-3.44-6.88v-10c0-1.72.57-3.44,1.52-4.79l2.96-4.52c1.53-2.3,4.21-3.82,7.08-3.82h12.81c1.72,0,3.45.57,4.79,1.52l7.02,4.68c.57.38.95.75,1.33,1.13,0,0,3.71,3.71,3.72,3.72,1.11.97,2.45,1.6,3.92,1.6h4.97c-.07-2.12-.29-4.21-.64-6.25h-4.8c-1.99,0-3.97-1.12-4.86-3.1,0,0-.92-2-.93-2.02-.38-.73-1.2-1.29-2.02-1.29h-2.34c-1.55,0-2.88-.66-3.76-1.55l-3.12-3.12c-.77-.77-1.84-.82-2.8-.45,0,0-2.83,1.34-2.82,1.34-.69.43-1.59.67-2.48.67h-7.66c-3.06,0-5.47-2.41-5.47-5.47,0-1.98,1.11-3.96,3.09-4.86,0,0,3.56-1.7,3.57-1.71.09-.05.23-.16.29-.2.06-.1.14-.2.22-.29l.78-.78c.77-.77.82-1.84.45-2.81,0,0-1.06-2.29-1.06-2.28-.65-1.31-.67-2.84-.23-4.14l1.44-4.31Z"/>
  </g>
</svg>