<?xml version="1.0" encoding="UTF-8"?>
<svg id="Capa_2" data-name="Capa 2" xmlns="http://www.w3.org/2000/svg" viewBox="0 0 76.93 80">
  <defs>
    <style>
      .cls-1 {
        fill: #80744d;
        fill-rule: evenodd;
      }
    </style>
  </defs>
  <g id="Capa_1-2" data-name="Capa 1">
    <path class="cls-1" d="M46.1,67.31c-.29-.54-.11-1.21.43-1.52.53-.31,1.21-.14,1.53.39l5.04,8.73c.3.54.11,1.22-.42,1.53-.54.31-1.22.13-1.54-.39l-5.04-8.73ZM29,65.68h0c.31-.54,1-.73,1.54-.42.54.31.73,1,.42,1.54l-5.04,8.73c-.31.54-1,.73-1.54.42-.54-.31-.73-1-.42-1.54l5.04-8.73h0ZM39.6,11.21c0,.62-.51,1.13-1.13,1.13s-1.13-.51-1.13-1.13V1.13c0-.62.51-1.13,1.13-1.13s1.13.51,1.13,1.13v10.08ZM48.06,13.82h0c-.31.54-1,.73-1.54.41-.54-.31-.73-1-.41-1.54l5.04-8.73c.32-.53,1-.7,1.54-.39.53.31.72.99.42,1.53l-5.04,8.73h0ZM30.96,13.19h0c.31.54.12,1.23-.42,1.54-.54.31-1.23.12-1.54-.41l-5.04-8.73c-.31-.54-.12-1.23.41-1.54.54-.31,1.23-.12,1.54.41l5.05,8.73h0ZM17.44,48.13l3.36-5.27h0c.65-1.03.38-2.39-.62-3.09-.05-.03-.1-.06-.14-.09-1.03-.59-2.34-.3-3.02.67-.03.05-.06.11-.1.16l-1.9,2.98s-.05.08-.07.12l-1.39,2.18c-.65,1.03-.38,2.39.62,3.09.05.03.1.06.14.09,1.02.6,2.34.31,3.02-.66.03-.05.06-.11.1-.16h0ZM34.16,51.38l-3.42,5.36,3.42-5.36ZM34.57,59.18l.25-.39,3.16-4.96h0c.65-1.04.38-2.39-.62-3.09-.05-.03-.1-.06-.14-.09-1.05-.61-2.41-.29-3.07.73l-3.42,5.36c-.65,1.03-.38,2.39.62,3.09.05.03.1.05.14.09,1.05.61,2.41.29,3.07-.73h0ZM22.19,53.32c-.68,1.03-2.05,1.35-3.12.73-.04-.03-.08-.05-.12-.07-.99-.67-1.28-2.01-.64-3.02l.02-.03,5.65-8.71c.33-.51.85-.87,1.45-1,.57-.13,1.16-.04,1.67.25.04.03.08.05.12.08.82.55,1.17,1.57.88,2.51l-5.82,9.14-.08.12h0ZM29.73,45.84l-5.65,8.71-.04.05-.96,1.5c-.65,1.03-.38,2.39.62,3.09.05.03.1.05.14.09,1.05.61,2.4.29,3.06-.73l1.93-3.02,3.43-5.36,1.75-2.74c.65-1.03.38-2.39-.62-3.09-.05-.03-.1-.06-.14-.09-1.05-.61-2.4-.29-3.06.73l-.05.09c-.1.25-.22.49-.37.71l-.04.05h0ZM18.9,16.92l-3.71-2.32c-1.2-.74-2.76-.39-3.54.78C7.93,21.07,3.92,26.87.38,32.62h0c-.71,1.13-.38,2.62.73,3.35l.04.02,3.71,2.32c.58.36,1.27.47,1.93.32.66-.14,1.24-.54,1.61-1.1l11.25-17.21h0s.02-.02.02-.04c.34-.55.45-1.2.32-1.83-.14-.62-.52-1.17-1.05-1.52l-.04-.03ZM21.59,21.48c1.61.87,3.27,1.64,4.97,2.32,1.44.6,2.92,1.23,4.41,1.98-.51.76-1.01,1.54-1.5,2.31-1.06,1.77-2.27,3.46-3.6,5.04-.48.53-.64,1.27-.43,1.95.19.63.54,1.2,1.01,1.66,3.63,3.62,6.45,2.1,9.02-.48.67-.67,1.27-1.36,1.86-2.04,1.54-1.77,3.04-3.49,4.35-3.43.28.08.54.21.77.38.55.34,1.06.73,1.53,1.16,1.12,1.02,2.4,1.84,3.79,2.43l14.34,9.79s.05.03.07.05l.04.03h0c.63.41,1.11,1.02,1.33,1.74.2.59.14,1.23-.17,1.77l-.02.03h0c-.35.52-.91.85-1.53.91-.77.09-1.56-.09-2.21-.52l-9.34-6.01c-.25-.16-.56-.22-.85-.16s-.55.24-.71.49c-.16.25-.21.56-.15.86.07.29.25.55.5.71l7.32,4.71c.55.36.95.91,1.13,1.54.14.57.04,1.16-.26,1.66-.04.04-.07.09-.09.14-.36.48-.9.79-1.49.85-.78.09-1.57-.09-2.23-.53l-1.6-1.02s-.05-.03-.07-.04h-.01s-4.62-2.95-4.62-2.95c-.25-.17-.56-.23-.86-.17-.3.06-.56.24-.72.5-.16.25-.21.57-.14.86.07.3.26.55.52.71l4.61,2.94.07.05h0c.65.42,1.14,1.05,1.38,1.78.2.57.14,1.19-.14,1.71-.03.04-.06.09-.09.14-.36.48-.89.78-1.49.84-.75.09-1.52-.08-2.16-.48-.05-.04-.11-.07-.16-.1l-4.13-2.64h0c-.25-.17-.56-.23-.86-.17-.3.06-.56.24-.72.5-.16.26-.21.57-.14.86.07.3.26.55.52.71l2.41,1.54h0c.67.41,1.17,1.05,1.41,1.8.21.59.14,1.25-.18,1.79-.35.51-.91.85-1.54.91-.75.09-1.51-.08-2.16-.48-.05-.04-.11-.07-.16-.1l-5.09-3.25,2.56-4.01h0c1.34-2.11.72-4.9-1.38-6.25-.69-.44-1.48-.68-2.3-.7.93-2.05.21-4.47-1.68-5.69-1.01-.64-2.24-.86-3.41-.6-.3.07-.59.16-.87.29-.31-1-.96-1.87-1.84-2.44l-.05-.04h0c-1.02-.64-2.24-.85-3.41-.59-.68.15-1.32.46-1.88.89-.34-.82-.91-1.52-1.64-2.02-.06-.05-.13-.09-.2-.13-2.1-1.25-4.82-.62-6.14,1.45l-1.35,2.11c-.44-.32-.88-.63-1.38-.98-.61-.42-1.29-.88-2.13-1.44.03-.04.06-.08.09-.12l11.25-17.21c.04-.07.04-.05.05-.08h0ZM66.57,38.71l-11.18-17.1-.05-.08c-.07-.12-.14-.24-.21-.37-2.82.97-5.05.65-8.15.22-1.35-.19-2.88-.4-4.73-.54-5.24-.38-8.09,4.08-10.89,8.45-1.11,1.84-2.36,3.6-3.73,5.25.09.23.23.43.41.59,2.28,2.27,4.12,1.24,5.83-.47.56-.56,1.16-1.25,1.75-1.93,1.91-2.19,3.75-4.31,6.16-4.2h0c.66.09,1.29.33,1.84.7.68.42,1.31.9,1.9,1.45.94.85,2.02,1.53,3.18,2.02.05.02.1.04.15.06.77.33,1.57.59,2.38.8,1.91.6,3.96.66,5.9.16.58-.22,1.23.07,1.46.66.22.58-.07,1.23-.65,1.46-1.29.42-2.65.57-4,.44,2.79,1.96,5.61,3.93,8.4,5.72.77-.52,1.51-1.09,2.2-1.71.64-.57,1.32-1.11,2.03-1.6h0ZM61.74,14.64l-3.71,2.32c-.06.04-.02,0-.04.02h0c-1.11.73-1.44,2.21-.73,3.35l11.27,17.25c.78,1.17,2.35,1.51,3.55.78l3.71-2.32.04-.02h0c1.12-.73,1.44-2.22.73-3.35-3.53-5.76-7.56-11.57-11.27-17.25-.78-1.17-2.34-1.52-3.54-.78h0ZM37.34,68.78h0c0-.62.51-1.13,1.13-1.13s1.13.51,1.13,1.13v10.08c0,.62-.5,1.13-1.13,1.13s-1.13-.51-1.13-1.13v-10.08Z"/>
  </g>
</svg>